<svg xmlns="http://www.w3.org/2000/svg" viewBox="0 0 241.33 69.13"><defs><style>.cls-1{fill:#bc2327;}.cls-1,.cls-2{fill-rule:evenodd;}.cls-2{fill:#1a1a1a;}</style></defs><title>Asset 2</title><g id="Layer_2" data-name="Layer 2"><g id="Layer_1-2" data-name="Layer 1"><path class="cls-1" d="M128.45,0c3.13-.36,4,5.25.23,5.29C126.1,5.35,124.49.47,128.45,0Z"/><path class="cls-1" d="M131.67,4.4c3.28-.94,2.79,3.89.47,3.91A2,2,0,0,1,131.67,4.4Z"/><path class="cls-1" d="M134,8.54c1.78-.6,2.5.34,2.53,1.61C136.61,14.65,129.66,10,134,8.54Z"/><path class="cls-1" d="M98.73,12.69c2.38-.56,3.29,3,1.15,3.69C98,17,95.51,13.44,98.73,12.69Z"/><path class="cls-1" d="M135.13,12.69c3-1,2.44,3,.69,3.22C134.29,16.13,132.64,13.48,135.13,12.69Z"/><path class="cls-1" d="M103.34,13.15c3.56-.94,2.77,4.09.23,3.91C101.94,17,100.67,13.85,103.34,13.15Z"/><path class="cls-1" d="M95.74,13.38a2.16,2.16,0,0,1,0,3.68C92.68,17.55,92.81,13,95.74,13.38Z"/><path class="cls-1" d="M108.41,14.07c3.72-.38,3.54,5.29.23,5.3C106,19.38,104.39,14.48,108.41,14.07Z"/><path class="cls-1" d="M92.74,18a2.28,2.28,0,0,1-2.53-.69A2.65,2.65,0,0,1,90.9,15C93.37,14.54,93.85,16.69,92.74,18Z"/><path class="cls-1" d="M135.36,16.38c1.11-.41,2.27.05,2.07,1.6C137,21.44,132,17.58,135.36,16.38Z"/><path class="cls-1" d="M96,17.53c3.61-.34,10.22,1.14,10.36,5.29.1,2.65-2,3.89-2.53,4.38A27.47,27.47,0,0,1,99.65,30c-1.74,1-7.05,2.34-8.06,5.52-.76,2.41.73,4.67.23,7.61-.56,3.31-3.58,6.86-7.6,6.45-8.42-.87.79-13.74,2.07-17.28C88.74,25.5,87.43,18.32,96,17.53Z"/><path class="cls-2" d="M24.09,60.83c-.09,3.22.53,7.14-1.61,8.3-3.86-.35-7.08-2.61-10.13-4.15s-6.74-2.58-8.3-5.76c6.11-.12,11.35.64,17.51.46-.2-9.7-.15-18.74-1.15-28.1-.28-2.58-.59-6.26,2.07-5.76s1.67,11.65,1.84,15.66c.29,6.65.06,11.35-.23,17.74,1.82-.1,3.28-.55,5.07-.69C29,60.81,26.08,60.37,24.09,60.83Zm-3.45,6.22c1.47-.9,1.44-3.31,1.38-5.76-4.65.69-9.68-.71-14-.22C12,63.26,15.37,66.11,20.64,67.05Z"/><path class="cls-2" d="M104.26,32c.27,0,.41.05.46.23-.83,9.38-4.74,19.8-2.53,29.26,4.63.4,4.65-3.8,9.67-3,1,.43,1.07,1.7,1.85,2.3,2.71.27,5.42-.71,6.91-.92-.18,2-3.18,1.42-5.53,2.08-2.93.82-8.27,5-9.91.46-2.27,1.14-5.71,0-6.91-1.38-1.58.56-3,1.8-5.76,1.38-.53-.08-1.07-.68-1.61-.69-1.5,0-2.79.9-4.14.69S84.56,61,83.53,60.6c-4.12,2.39-14,5.59-17.28.23-2.68,2.89-12.35,2.5-14.29-.92-1.25-2.23.16-6.21,3.23-5.76.7.55-.67,1.78-.69,2.77-.09,4.72,7.1,5.85,11.29,3.68C65.31,56.73,69,54.87,72,56c.76,2.59-1.09,4.38-3.23,4.83C70,63.32,75.09,63.29,77.54,62c.41-2.44-1.93-3.26-2.07-4.38,1.45,0,3.07-.56,4.37,0,.34.73.12,2,.46,2.76,2.25-.28,2.06-3,5.07-2.53.7.61.62,2,.92,3,.88.8,2.9.41,4.15.24.67-4.56,3.62-6.83,8.75-6.92C101.34,47.24,101,37.85,104.26,32ZM93.66,61.29q4.53-.07,4.61-4.6C95,55.35,91.56,58.67,93.66,61.29ZM68.1,59.68c1-.76,3.19-1.51,3-2.76C69.48,57.08,67.81,58.39,68.1,59.68ZM107,62.22c.55.9,1.89,1,3.45.92a2.78,2.78,0,0,0,.46-3C109.1,59.49,106.82,60.08,107,62.22Z"/><path class="cls-2" d="M154.48,51.16c.41-1.93,2.73-1.48,3.92-2.07A6.46,6.46,0,0,0,162.09,44c.26-4.72-5.36-7.56-10.14-8.07-9.6-1-24.25,5.32-25.57,14.29C125,59.81,134.16,64.14,142,64.75c6.11.47,11.42-1.75,17.05-1.84-.2,2.12-3,2.55-4.61,3-12.6,3.52-32.51-.26-31.1-15.43.88-9.54,14.47-15.16,24-15.9,6.6-.51,14.77,1.19,16.82,6C166.79,46.73,159.89,51.56,154.48,51.16Z"/><path class="cls-2" d="M5.43,36h.46C6,42.74,3.22,49.47,2.67,56.69c-.25,3.21.71,6.71-.23,9.9-.74.63-1.61-.1-2.31-.23-.58-9.18.72-24.57,4.38-29.95.15-.22.66-.11.69-.46Z"/><path class="cls-2" d="M55.42,44.71c-1.59-3.8,3.95-5.23,4.15-2.08C59.67,44.25,57.61,45.51,55.42,44.71Z"/><path class="cls-2" d="M202.4,44.94c-1.6-3.8,3.95-5.23,4.15-2.07C206.65,44.49,204.59,45.74,202.4,44.94Z"/><path class="cls-2" d="M202.63,54.39c-4.3,6,5.61,9.66,10.37,6.21.3-1.73-2.38-1.54-1.85-2.76,1.45,0,3.08-.56,4.38,0,.34.73.12,2,.46,2.76,2.25-.28,2.06-3,5.07-2.53.7.61.62,2,.92,3,4.61,2,5.63-3.21,10.6-2.31.95.43,1.06,1.7,1.84,2.31,2.72.25,5.42-.73,6.91-.93-.4,2.11-3.4,1.48-5.53,2.08-2.8.78-5.8,3.59-9.21,2.07a2.43,2.43,0,0,1-.69-2.07,6.26,6.26,0,0,1-6.68-1.39c-1.82.53-4.52,3.09-6.22.93-3.16,1.62-9.29,1.49-12.21-.23-2.21.68-3.29,1.71-5.53,1.61-1.68-.08-2.91-1.45-4.38-1.38-1.64.07-2.19,1.72-3.92,1.61-1.26-.58-1.35-2.33-2.3-3.23-2.49.48-3.63,3.9-6,3.46-1.85-.35-1-2.85-3.22-3.23.66-1,2-1.38,3.68-1.38,1,0,.72,1.28,1.38,1.61,2.09-1.06,2.83-3.47,6-3.45.56,1.28.38,3.31,1.62,3.92,3.12-.34,2.44-2.62,5.06-2.31,1.92.23,2.82,3.78,6,1.84C197.69,58.67,199,53.21,202.63,54.39Zm25.11,8.06c.55.9,1.89,1,3.45.92a2.78,2.78,0,0,0,.47-3C229.81,59.73,227.53,60.31,227.74,62.45Z"/><path class="cls-2" d="M38.61,55.54c-.92,3.82,0,7.55,4.37,6,.18-3.58,1.09-6.45,4.84-6.46,1,.54,2,3.76,0,3.92-1.23-.12.31-1.65-.46-2.07-6,.84-2,9.12,3.45,5.53.08,3.53-7,3.71-7.37.46-2.55.51-5.87.13-6.68-1.84-1.76,1-5.39,2.47-7.6.92C28.11,56.74,33.69,54.07,38.61,55.54Zm-7.15,5.53a.63.63,0,0,1,.7.46c2.67-.41,4.5-1.64,4.37-4.84C33.46,55.82,30.51,57.92,31.46,61.07Z"/><path class="cls-2" d="M171.53,55.77c-1.32,4.38.78,7.71,5.07,5.76-.09,3.42-6.48,1.61-6.91-.24-1.76,1-5.39,2.48-7.6.93C161,57,166.61,54.3,171.53,55.77Zm-7.14,5.52a.64.64,0,0,1,.69.47c2.67-.4,4.51-1.64,4.37-4.84C166.38,56.05,163.44,58.15,164.39,61.29Z"/><path class="cls-1" d="M128.68,5.31c3.79,0,2.9-5.65-.23-5.29C124.49.47,126.1,5.35,128.68,5.31Z"/><path class="cls-1" d="M132.14,8.31c2.32,0,2.81-4.85-.47-3.91A2,2,0,0,0,132.14,8.31Z"/><path class="cls-1" d="M119,25.59c-1.36,1.7-4.65,1.47-7.14,3.22-3.56,2.51-5.59,11.53.46,11.75,2.43.09,4.78-2.89,6.68-5.07s3.25-4.76,5.3-6.68c3.59-3.36,8.42-4.87,9.45-9.44,1.31-5.79-5-13.21-9.21-12.21C117.79,8.74,122.53,21.21,119,25.59Z"/><path class="cls-1" d="M136.51,10.15c0-1.27-.75-2.21-2.53-1.61C129.66,10,136.61,14.65,136.51,10.15Z"/><path class="cls-1" d="M99.88,16.38c2.14-.7,1.23-4.25-1.15-3.69C95.51,13.44,98,17,99.88,16.38Z"/><path class="cls-1" d="M135.82,15.91c1.75-.24,2.35-4.18-.69-3.22C132.64,13.48,134.29,16.13,135.82,15.91Z"/><path class="cls-1" d="M103.57,17.06c2.54.18,3.33-4.85-.23-3.91C100.67,13.85,101.94,17,103.57,17.06Z"/><path class="cls-1" d="M90.9,15a2.65,2.65,0,0,0-.69,2.3,2.28,2.28,0,0,0,2.53.69C93.85,16.69,93.37,14.54,90.9,15Z"/><path class="cls-1" d="M95.74,17.06a2.16,2.16,0,0,0,0-3.68C92.81,13,92.68,17.55,95.74,17.06Z"/><path class="cls-1" d="M108.64,19.37c3.31,0,3.49-5.68-.23-5.3C104.39,14.48,106,19.38,108.64,19.37Z"/><path class="cls-1" d="M137.43,18c.2-1.55-1-2-2.07-1.6C132,17.58,137,21.44,137.43,18Z"/><path class="cls-1" d="M86.29,32.27C85,35.81,75.8,48.68,84.22,49.55c4,.41,7-3.14,7.6-6.45.5-2.94-1-5.2-.23-7.61,1-3.18,6.32-4.57,8.06-5.52a27.47,27.47,0,0,0,4.15-2.77c.57-.49,2.63-1.73,2.53-4.38-.14-4.15-6.75-5.63-10.36-5.29C87.43,18.32,88.74,25.5,86.29,32.27Z"/><path class="cls-1" d="M124.54,7.16c4.24-1,10.52,6.42,9.21,12.21-1,4.57-5.86,6.08-9.45,9.44-2,1.92-3.41,4.53-5.3,6.68s-4.25,5.16-6.68,5.07c-6-.22-4-9.24-.46-11.75,2.49-1.75,5.78-1.52,7.14-3.22C122.53,21.21,117.79,8.74,124.54,7.16Z"/></g></g></svg>